<mxfile host="app.diagrams.net" agent="Mozilla/5.0 (Windows NT 10.0; Win64; x64) AppleWebKit/537.36 (KHTML, like Gecko) Chrome/138.0.0.0 Safari/537.36" version="27.2.0">
  <diagram name="Page-1" id="8N5hteDbhJFZKI4P9H9h">
    <mxGraphModel dx="1042" dy="562" grid="1" gridSize="10" guides="1" tooltips="1" connect="1" arrows="1" fold="1" page="1" pageScale="1" pageWidth="850" pageHeight="1100" math="0" shadow="0">
      <root>
        <mxCell id="0" />
        <mxCell id="1" parent="0" />
        <mxCell id="fYaFskfYnmV5zR_hhQRb-2" style="edgeStyle=orthogonalEdgeStyle;rounded=0;orthogonalLoop=1;jettySize=auto;html=1;entryX=0.5;entryY=0;entryDx=0;entryDy=0;" edge="1" parent="1" source="fYaFskfYnmV5zR_hhQRb-1" target="fYaFskfYnmV5zR_hhQRb-3">
          <mxGeometry relative="1" as="geometry">
            <mxPoint x="720" y="160" as="targetPoint" />
          </mxGeometry>
        </mxCell>
        <mxCell id="fYaFskfYnmV5zR_hhQRb-16" style="edgeStyle=orthogonalEdgeStyle;rounded=0;orthogonalLoop=1;jettySize=auto;html=1;entryX=1;entryY=0.5;entryDx=0;entryDy=0;" edge="1" parent="1" source="fYaFskfYnmV5zR_hhQRb-1" target="fYaFskfYnmV5zR_hhQRb-15">
          <mxGeometry relative="1" as="geometry" />
        </mxCell>
        <mxCell id="fYaFskfYnmV5zR_hhQRb-1" value="&lt;font style=&quot;font-size: 29px;&quot;&gt;Editor&lt;/font&gt;" style="rounded=1;whiteSpace=wrap;html=1;" vertex="1" parent="1">
          <mxGeometry x="330" y="20" width="190" height="90" as="geometry" />
        </mxCell>
        <mxCell id="fYaFskfYnmV5zR_hhQRb-4" style="edgeStyle=orthogonalEdgeStyle;rounded=0;orthogonalLoop=1;jettySize=auto;html=1;entryX=0.5;entryY=0;entryDx=0;entryDy=0;" edge="1" parent="1" source="fYaFskfYnmV5zR_hhQRb-3" target="fYaFskfYnmV5zR_hhQRb-5">
          <mxGeometry relative="1" as="geometry">
            <mxPoint x="720" y="280" as="targetPoint" />
          </mxGeometry>
        </mxCell>
        <mxCell id="fYaFskfYnmV5zR_hhQRb-7" style="edgeStyle=orthogonalEdgeStyle;rounded=0;orthogonalLoop=1;jettySize=auto;html=1;entryX=0.5;entryY=0;entryDx=0;entryDy=0;" edge="1" parent="1" source="fYaFskfYnmV5zR_hhQRb-3" target="fYaFskfYnmV5zR_hhQRb-6">
          <mxGeometry relative="1" as="geometry" />
        </mxCell>
        <mxCell id="fYaFskfYnmV5zR_hhQRb-3" value="&lt;span style=&quot;font-size: 21px;&quot;&gt;run&lt;/span&gt;" style="rounded=1;whiteSpace=wrap;html=1;" vertex="1" parent="1">
          <mxGeometry x="365" y="170" width="120" height="60" as="geometry" />
        </mxCell>
        <mxCell id="fYaFskfYnmV5zR_hhQRb-19" style="edgeStyle=orthogonalEdgeStyle;rounded=0;orthogonalLoop=1;jettySize=auto;html=1;entryX=0.5;entryY=0;entryDx=0;entryDy=0;" edge="1" parent="1" source="fYaFskfYnmV5zR_hhQRb-5" target="fYaFskfYnmV5zR_hhQRb-18">
          <mxGeometry relative="1" as="geometry" />
        </mxCell>
        <mxCell id="fYaFskfYnmV5zR_hhQRb-5" value="&lt;span style=&quot;font-size: 19px;&quot;&gt;render&lt;/span&gt;" style="rounded=1;whiteSpace=wrap;html=1;" vertex="1" parent="1">
          <mxGeometry x="670" y="280" width="120" height="60" as="geometry" />
        </mxCell>
        <mxCell id="fYaFskfYnmV5zR_hhQRb-10" style="edgeStyle=orthogonalEdgeStyle;rounded=0;orthogonalLoop=1;jettySize=auto;html=1;entryX=0.5;entryY=0;entryDx=0;entryDy=0;" edge="1" parent="1" source="fYaFskfYnmV5zR_hhQRb-6" target="fYaFskfYnmV5zR_hhQRb-9">
          <mxGeometry relative="1" as="geometry" />
        </mxCell>
        <mxCell id="fYaFskfYnmV5zR_hhQRb-6" value="&lt;span style=&quot;font-size: 19px;&quot;&gt;events&lt;/span&gt;" style="rounded=1;whiteSpace=wrap;html=1;" vertex="1" parent="1">
          <mxGeometry x="50" y="280" width="120" height="60" as="geometry" />
        </mxCell>
        <mxCell id="fYaFskfYnmV5zR_hhQRb-13" style="edgeStyle=orthogonalEdgeStyle;rounded=0;orthogonalLoop=1;jettySize=auto;html=1;entryX=0.5;entryY=0;entryDx=0;entryDy=0;" edge="1" parent="1" source="fYaFskfYnmV5zR_hhQRb-9" target="fYaFskfYnmV5zR_hhQRb-12">
          <mxGeometry relative="1" as="geometry" />
        </mxCell>
        <mxCell id="fYaFskfYnmV5zR_hhQRb-9" value="&lt;span style=&quot;font-size: 19px;&quot;&gt;mouse&lt;/span&gt;" style="rounded=1;whiteSpace=wrap;html=1;" vertex="1" parent="1">
          <mxGeometry x="50" y="400" width="120" height="60" as="geometry" />
        </mxCell>
        <mxCell id="fYaFskfYnmV5zR_hhQRb-12" value="&lt;span style=&quot;font-size: 19px;&quot;&gt;add tile&lt;/span&gt;" style="rounded=1;whiteSpace=wrap;html=1;" vertex="1" parent="1">
          <mxGeometry x="50" y="510" width="120" height="60" as="geometry" />
        </mxCell>
        <mxCell id="fYaFskfYnmV5zR_hhQRb-15" value="&lt;font style=&quot;font-size: 19px;&quot;&gt;load assets&lt;/font&gt;" style="rounded=1;whiteSpace=wrap;html=1;" vertex="1" parent="1">
          <mxGeometry x="60" y="35" width="120" height="60" as="geometry" />
        </mxCell>
        <mxCell id="fYaFskfYnmV5zR_hhQRb-18" value="&lt;span style=&quot;font-size: 19px;&quot;&gt;render tiles&lt;/span&gt;" style="rounded=1;whiteSpace=wrap;html=1;" vertex="1" parent="1">
          <mxGeometry x="670" y="400" width="120" height="60" as="geometry" />
        </mxCell>
      </root>
    </mxGraphModel>
  </diagram>
</mxfile>
